<?xml version="1.0" standalone="no"?>
<!DOCTYPE svg PUBLIC "-//W3C//DTD SVG 20010904//EN"
 "http://www.w3.org/TR/2001/REC-SVG-20010904/DTD/svg10.dtd">
<svg version="1.0" xmlns="http://www.w3.org/2000/svg"
 width="250.000000pt" height="250.000000pt" viewBox="0 0 250.000000 250.000000"
 preserveAspectRatio="xMidYMid meet">
<metadata>
Created by potrace 1.11, written by Peter Selinger 2001-2013
</metadata>
<g transform="translate(0.000000,250.000000) scale(0.100000,-0.100000)"
fill="#000000" stroke="none">
<path d="M150 1901 c0 -12 -82 -145 -92 -149 -5 -2 -8 -10 -8 -18 0 -12 118
-14 840 -12 462 2 840 0 840 -4 0 -5 -24 -52 -54 -105 l-54 -98 -669 -2 c-367
-2 -670 -3 -673 -3 -3 0 -22 -21 -42 -47 -20 -27 -46 -58 -57 -70 -12 -12 -21
-27 -21 -32 0 -6 262 -10 748 -10 411 -1 748 -1 750 -1 1 0 -15 -24 -36 -52
-21 -29 -51 -74 -67 -100 l-30 -48 -574 -2 -575 -3 -58 -92 -57 -93 664 0
c366 0 665 -2 665 -4 0 -2 -25 -45 -56 -95 l-56 -91 -486 0 -487 -1 -50 -67
c-27 -37 -53 -68 -57 -70 -5 -2 -8 -13 -8 -23 0 -11 4 -18 9 -15 5 3 405 6
889 6 l879 0 12 58 c6 31 63 320 127 642 63 322 117 591 119 598 3 9 -228 12
-1135 12 -707 0 -1140 -4 -1140 -9z"/>
</g>
</svg>
